<mxfile host="app.diagrams.net" agent="Mozilla/5.0 (Windows NT 10.0; Win64; x64) AppleWebKit/537.36 (KHTML, like Gecko) Chrome/141.0.0.0 Safari/537.36" version="28.2.7">
  <diagram name="Page-1" id="iFomAs1L6bGrlfYHlu95">
    <mxGraphModel dx="1389" dy="703" grid="1" gridSize="10" guides="1" tooltips="1" connect="1" arrows="1" fold="1" page="1" pageScale="1" pageWidth="827" pageHeight="1169" math="0" shadow="0">
      <root>
        <mxCell id="0" />
        <mxCell id="1" parent="0" />
        <mxCell id="fwE1eg_tT7GF1cN5ce5h-3" value="Rocket FC" style="swimlane;whiteSpace=wrap;html=1;" vertex="1" parent="1">
          <mxGeometry x="240" y="20" width="680" height="620" as="geometry" />
        </mxCell>
        <mxCell id="fwE1eg_tT7GF1cN5ce5h-21" style="edgeStyle=orthogonalEdgeStyle;rounded=0;orthogonalLoop=1;jettySize=auto;html=1;entryX=0.5;entryY=0;entryDx=0;entryDy=0;" edge="1" parent="fwE1eg_tT7GF1cN5ce5h-3" source="fwE1eg_tT7GF1cN5ce5h-4" target="fwE1eg_tT7GF1cN5ce5h-5">
          <mxGeometry relative="1" as="geometry">
            <mxPoint x="290" y="210" as="targetPoint" />
          </mxGeometry>
        </mxCell>
        <mxCell id="fwE1eg_tT7GF1cN5ce5h-93" value="CANbus 1" style="edgeLabel;html=1;align=center;verticalAlign=middle;resizable=0;points=[];" vertex="1" connectable="0" parent="fwE1eg_tT7GF1cN5ce5h-21">
          <mxGeometry x="-0.5123" relative="1" as="geometry">
            <mxPoint as="offset" />
          </mxGeometry>
        </mxCell>
        <mxCell id="fwE1eg_tT7GF1cN5ce5h-78" style="edgeStyle=orthogonalEdgeStyle;rounded=0;orthogonalLoop=1;jettySize=auto;html=1;entryX=0;entryY=0.5;entryDx=0;entryDy=0;exitX=1;exitY=0.25;exitDx=0;exitDy=0;" edge="1" parent="fwE1eg_tT7GF1cN5ce5h-3" source="fwE1eg_tT7GF1cN5ce5h-5" target="fwE1eg_tT7GF1cN5ce5h-77">
          <mxGeometry relative="1" as="geometry" />
        </mxCell>
        <mxCell id="fwE1eg_tT7GF1cN5ce5h-100" value="Comunications" style="edgeLabel;html=1;align=center;verticalAlign=middle;resizable=0;points=[];" vertex="1" connectable="0" parent="fwE1eg_tT7GF1cN5ce5h-78">
          <mxGeometry x="0.464" relative="1" as="geometry">
            <mxPoint x="16" as="offset" />
          </mxGeometry>
        </mxCell>
        <mxCell id="fwE1eg_tT7GF1cN5ce5h-79" style="edgeStyle=orthogonalEdgeStyle;rounded=0;orthogonalLoop=1;jettySize=auto;html=1;exitX=0.5;exitY=1;exitDx=0;exitDy=0;entryX=0.5;entryY=0;entryDx=0;entryDy=0;" edge="1" parent="fwE1eg_tT7GF1cN5ce5h-3" source="fwE1eg_tT7GF1cN5ce5h-5" target="fwE1eg_tT7GF1cN5ce5h-57">
          <mxGeometry relative="1" as="geometry">
            <Array as="points">
              <mxPoint x="290" y="420" />
              <mxPoint x="340" y="420" />
            </Array>
          </mxGeometry>
        </mxCell>
        <mxCell id="fwE1eg_tT7GF1cN5ce5h-94" value="CANbus 1" style="edgeLabel;html=1;align=center;verticalAlign=middle;resizable=0;points=[];" vertex="1" connectable="0" parent="fwE1eg_tT7GF1cN5ce5h-79">
          <mxGeometry x="-0.6448" relative="1" as="geometry">
            <mxPoint as="offset" />
          </mxGeometry>
        </mxCell>
        <mxCell id="fwE1eg_tT7GF1cN5ce5h-24" value="" style="edgeStyle=orthogonalEdgeStyle;rounded=0;orthogonalLoop=1;jettySize=auto;html=1;exitX=0.25;exitY=1;exitDx=0;exitDy=0;" edge="1" parent="fwE1eg_tT7GF1cN5ce5h-3" target="fwE1eg_tT7GF1cN5ce5h-23">
          <mxGeometry relative="1" as="geometry">
            <mxPoint x="210" y="450" as="sourcePoint" />
            <Array as="points">
              <mxPoint x="220" y="420" />
              <mxPoint x="90" y="420" />
            </Array>
          </mxGeometry>
        </mxCell>
        <mxCell id="fwE1eg_tT7GF1cN5ce5h-32" value="Thrust" style="edgeLabel;html=1;align=center;verticalAlign=middle;resizable=0;points=[];" vertex="1" connectable="0" parent="fwE1eg_tT7GF1cN5ce5h-24">
          <mxGeometry x="0.0902" y="-2" relative="1" as="geometry">
            <mxPoint as="offset" />
          </mxGeometry>
        </mxCell>
        <mxCell id="fwE1eg_tT7GF1cN5ce5h-27" style="edgeStyle=orthogonalEdgeStyle;rounded=0;orthogonalLoop=1;jettySize=auto;html=1;exitX=0.5;exitY=1;exitDx=0;exitDy=0;entryX=0.5;entryY=0;entryDx=0;entryDy=0;" edge="1" parent="fwE1eg_tT7GF1cN5ce5h-3" target="fwE1eg_tT7GF1cN5ce5h-26">
          <mxGeometry relative="1" as="geometry">
            <mxPoint x="230" y="450" as="sourcePoint" />
          </mxGeometry>
        </mxCell>
        <mxCell id="fwE1eg_tT7GF1cN5ce5h-30" value="Yaw/Pitch" style="edgeLabel;html=1;align=center;verticalAlign=middle;resizable=0;points=[];" vertex="1" connectable="0" parent="fwE1eg_tT7GF1cN5ce5h-27">
          <mxGeometry x="-0.1167" relative="1" as="geometry">
            <mxPoint as="offset" />
          </mxGeometry>
        </mxCell>
        <mxCell id="fwE1eg_tT7GF1cN5ce5h-29" style="edgeStyle=orthogonalEdgeStyle;rounded=0;orthogonalLoop=1;jettySize=auto;html=1;exitX=0.75;exitY=1;exitDx=0;exitDy=0;entryX=0.5;entryY=0;entryDx=0;entryDy=0;" edge="1" parent="fwE1eg_tT7GF1cN5ce5h-3" target="fwE1eg_tT7GF1cN5ce5h-28">
          <mxGeometry relative="1" as="geometry">
            <mxPoint x="250" y="450" as="sourcePoint" />
            <Array as="points">
              <mxPoint x="260" y="420" />
              <mxPoint x="390" y="420" />
            </Array>
          </mxGeometry>
        </mxCell>
        <mxCell id="fwE1eg_tT7GF1cN5ce5h-31" value="Roll" style="edgeLabel;html=1;align=center;verticalAlign=middle;resizable=0;points=[];" vertex="1" connectable="0" parent="fwE1eg_tT7GF1cN5ce5h-29">
          <mxGeometry x="-0.1621" relative="1" as="geometry">
            <mxPoint as="offset" />
          </mxGeometry>
        </mxCell>
        <mxCell id="fwE1eg_tT7GF1cN5ce5h-35" style="edgeStyle=orthogonalEdgeStyle;rounded=0;orthogonalLoop=1;jettySize=auto;html=1;entryX=0;entryY=0.5;entryDx=0;entryDy=0;dashed=1;startArrow=classic;startFill=1;exitX=1;exitY=0.5;exitDx=0;exitDy=0;" edge="1" parent="fwE1eg_tT7GF1cN5ce5h-3" source="fwE1eg_tT7GF1cN5ce5h-45" target="fwE1eg_tT7GF1cN5ce5h-5">
          <mxGeometry relative="1" as="geometry">
            <mxPoint x="110" y="230" as="sourcePoint" />
          </mxGeometry>
        </mxCell>
        <mxCell id="fwE1eg_tT7GF1cN5ce5h-36" value="ST-Link" style="edgeLabel;html=1;align=center;verticalAlign=middle;resizable=0;points=[];" vertex="1" connectable="0" parent="fwE1eg_tT7GF1cN5ce5h-35">
          <mxGeometry x="-0.0721" y="2" relative="1" as="geometry">
            <mxPoint as="offset" />
          </mxGeometry>
        </mxCell>
        <mxCell id="fwE1eg_tT7GF1cN5ce5h-45" value="Simulink Guidance Algorythms" style="whiteSpace=wrap;html=1;" vertex="1" parent="fwE1eg_tT7GF1cN5ce5h-3">
          <mxGeometry x="70" y="275" width="120" height="30" as="geometry" />
        </mxCell>
        <mxCell id="fwE1eg_tT7GF1cN5ce5h-56" style="edgeStyle=orthogonalEdgeStyle;rounded=0;orthogonalLoop=1;jettySize=auto;html=1;exitX=0.5;exitY=1;exitDx=0;exitDy=0;entryX=0.5;entryY=0;entryDx=0;entryDy=0;" edge="1" parent="fwE1eg_tT7GF1cN5ce5h-3" source="fwE1eg_tT7GF1cN5ce5h-47" target="fwE1eg_tT7GF1cN5ce5h-45">
          <mxGeometry relative="1" as="geometry" />
        </mxCell>
        <mxCell id="fwE1eg_tT7GF1cN5ce5h-47" value="Simulink / Matlab simulation" style="whiteSpace=wrap;html=1;" vertex="1" parent="fwE1eg_tT7GF1cN5ce5h-3">
          <mxGeometry x="70" y="220" width="120" height="30" as="geometry" />
        </mxCell>
        <mxCell id="fwE1eg_tT7GF1cN5ce5h-50" style="edgeStyle=orthogonalEdgeStyle;rounded=0;orthogonalLoop=1;jettySize=auto;html=1;exitX=0.5;exitY=0;exitDx=0;exitDy=0;entryX=0.5;entryY=1;entryDx=0;entryDy=0;" edge="1" parent="fwE1eg_tT7GF1cN5ce5h-3" source="fwE1eg_tT7GF1cN5ce5h-48" target="fwE1eg_tT7GF1cN5ce5h-45">
          <mxGeometry relative="1" as="geometry" />
        </mxCell>
        <mxCell id="fwE1eg_tT7GF1cN5ce5h-48" value="OpenRocket model &amp;amp; optimization" style="whiteSpace=wrap;html=1;" vertex="1" parent="fwE1eg_tT7GF1cN5ce5h-3">
          <mxGeometry x="70" y="330" width="120" height="30" as="geometry" />
        </mxCell>
        <mxCell id="fwE1eg_tT7GF1cN5ce5h-54" value="Navigation" style="swimlane;horizontal=0;whiteSpace=wrap;html=1;" vertex="1" parent="fwE1eg_tT7GF1cN5ce5h-3">
          <mxGeometry x="10" y="30" width="660" height="160" as="geometry" />
        </mxCell>
        <mxCell id="fwE1eg_tT7GF1cN5ce5h-13" value="" style="edgeStyle=orthogonalEdgeStyle;rounded=0;orthogonalLoop=1;jettySize=auto;html=1;exitX=1;exitY=0.25;exitDx=0;exitDy=0;" edge="1" parent="fwE1eg_tT7GF1cN5ce5h-54" source="fwE1eg_tT7GF1cN5ce5h-4" target="fwE1eg_tT7GF1cN5ce5h-12">
          <mxGeometry relative="1" as="geometry" />
        </mxCell>
        <mxCell id="fwE1eg_tT7GF1cN5ce5h-18" value="I2C" style="edgeLabel;html=1;align=center;verticalAlign=middle;resizable=0;points=[];" vertex="1" connectable="0" parent="fwE1eg_tT7GF1cN5ce5h-13">
          <mxGeometry x="0.0976" y="1" relative="1" as="geometry">
            <mxPoint as="offset" />
          </mxGeometry>
        </mxCell>
        <mxCell id="fwE1eg_tT7GF1cN5ce5h-16" style="edgeStyle=orthogonalEdgeStyle;rounded=0;orthogonalLoop=1;jettySize=auto;html=1;exitX=1;exitY=0.5;exitDx=0;exitDy=0;entryX=0;entryY=0.5;entryDx=0;entryDy=0;" edge="1" parent="fwE1eg_tT7GF1cN5ce5h-54" source="fwE1eg_tT7GF1cN5ce5h-4" target="fwE1eg_tT7GF1cN5ce5h-14">
          <mxGeometry relative="1" as="geometry" />
        </mxCell>
        <mxCell id="fwE1eg_tT7GF1cN5ce5h-19" value="I2C" style="edgeLabel;html=1;align=center;verticalAlign=middle;resizable=0;points=[];" vertex="1" connectable="0" parent="fwE1eg_tT7GF1cN5ce5h-16">
          <mxGeometry x="0.0409" relative="1" as="geometry">
            <mxPoint as="offset" />
          </mxGeometry>
        </mxCell>
        <mxCell id="fwE1eg_tT7GF1cN5ce5h-17" style="edgeStyle=orthogonalEdgeStyle;rounded=0;orthogonalLoop=1;jettySize=auto;html=1;exitX=1;exitY=0.75;exitDx=0;exitDy=0;entryX=0;entryY=0.5;entryDx=0;entryDy=0;" edge="1" parent="fwE1eg_tT7GF1cN5ce5h-54" source="fwE1eg_tT7GF1cN5ce5h-4" target="fwE1eg_tT7GF1cN5ce5h-15">
          <mxGeometry relative="1" as="geometry" />
        </mxCell>
        <mxCell id="fwE1eg_tT7GF1cN5ce5h-20" value="Serial-UBX" style="edgeLabel;html=1;align=center;verticalAlign=middle;resizable=0;points=[];" vertex="1" connectable="0" parent="fwE1eg_tT7GF1cN5ce5h-17">
          <mxGeometry x="0.0271" y="-1" relative="1" as="geometry">
            <mxPoint as="offset" />
          </mxGeometry>
        </mxCell>
        <mxCell id="fwE1eg_tT7GF1cN5ce5h-114" value="" style="edgeStyle=orthogonalEdgeStyle;rounded=0;orthogonalLoop=1;jettySize=auto;html=1;" edge="1" parent="fwE1eg_tT7GF1cN5ce5h-54" source="fwE1eg_tT7GF1cN5ce5h-4" target="fwE1eg_tT7GF1cN5ce5h-113">
          <mxGeometry relative="1" as="geometry" />
        </mxCell>
        <mxCell id="fwE1eg_tT7GF1cN5ce5h-4" value="Navigation&lt;br&gt;&lt;font style=&quot;font-size: 8px;&quot;&gt;STM32F303K8&lt;/font&gt;" style="whiteSpace=wrap;html=1;aspect=fixed;" vertex="1" parent="fwE1eg_tT7GF1cN5ce5h-54">
          <mxGeometry x="240" y="40" width="80" height="80" as="geometry" />
        </mxCell>
        <mxCell id="fwE1eg_tT7GF1cN5ce5h-14" value="BAROMETER&lt;br&gt;TMP120" style="whiteSpace=wrap;html=1;" vertex="1" parent="fwE1eg_tT7GF1cN5ce5h-54">
          <mxGeometry x="380" y="65" width="120" height="30" as="geometry" />
        </mxCell>
        <mxCell id="fwE1eg_tT7GF1cN5ce5h-15" value="GPS&lt;br&gt;NEO-M6" style="whiteSpace=wrap;html=1;" vertex="1" parent="fwE1eg_tT7GF1cN5ce5h-54">
          <mxGeometry x="380" y="120" width="120" height="30" as="geometry" />
        </mxCell>
        <mxCell id="fwE1eg_tT7GF1cN5ce5h-12" value="IMU&lt;br&gt;BNO055" style="whiteSpace=wrap;html=1;" vertex="1" parent="fwE1eg_tT7GF1cN5ce5h-54">
          <mxGeometry x="380" y="10" width="120" height="30" as="geometry" />
        </mxCell>
        <mxCell id="fwE1eg_tT7GF1cN5ce5h-113" value="&lt;div&gt;Wirelles Debug&lt;/div&gt;APC220" style="whiteSpace=wrap;html=1;" vertex="1" parent="fwE1eg_tT7GF1cN5ce5h-54">
          <mxGeometry x="80" y="65" width="120" height="30" as="geometry" />
        </mxCell>
        <mxCell id="fwE1eg_tT7GF1cN5ce5h-61" value="Guidance" style="swimlane;horizontal=0;whiteSpace=wrap;html=1;" vertex="1" parent="fwE1eg_tT7GF1cN5ce5h-3">
          <mxGeometry x="10" y="200" width="340" height="200" as="geometry" />
        </mxCell>
        <mxCell id="fwE1eg_tT7GF1cN5ce5h-5" value="Guidance" style="whiteSpace=wrap;html=1;aspect=fixed;" vertex="1" parent="fwE1eg_tT7GF1cN5ce5h-61">
          <mxGeometry x="240" y="60" width="80" height="80" as="geometry" />
        </mxCell>
        <mxCell id="fwE1eg_tT7GF1cN5ce5h-62" value="Controll" style="swimlane;horizontal=0;whiteSpace=wrap;html=1;" vertex="1" parent="fwE1eg_tT7GF1cN5ce5h-3">
          <mxGeometry x="10" y="410" width="660" height="200" as="geometry" />
        </mxCell>
        <mxCell id="fwE1eg_tT7GF1cN5ce5h-58" value="FADEC" style="whiteSpace=wrap;html=1;" vertex="1" parent="fwE1eg_tT7GF1cN5ce5h-62">
          <mxGeometry x="120" y="160" width="120" height="20" as="geometry" />
        </mxCell>
        <mxCell id="fwE1eg_tT7GF1cN5ce5h-59" value="TVC" style="whiteSpace=wrap;html=1;" vertex="1" parent="fwE1eg_tT7GF1cN5ce5h-62">
          <mxGeometry x="270" y="160" width="120" height="20" as="geometry" />
        </mxCell>
        <mxCell id="fwE1eg_tT7GF1cN5ce5h-60" value="Inertial Wheel" style="whiteSpace=wrap;html=1;" vertex="1" parent="fwE1eg_tT7GF1cN5ce5h-62">
          <mxGeometry x="420" y="160" width="120" height="20" as="geometry" />
        </mxCell>
        <mxCell id="fwE1eg_tT7GF1cN5ce5h-80" style="edgeStyle=orthogonalEdgeStyle;rounded=0;orthogonalLoop=1;jettySize=auto;html=1;exitX=0.5;exitY=1;exitDx=0;exitDy=0;entryX=0.5;entryY=0;entryDx=0;entryDy=0;" edge="1" parent="fwE1eg_tT7GF1cN5ce5h-62" source="fwE1eg_tT7GF1cN5ce5h-57" target="fwE1eg_tT7GF1cN5ce5h-59">
          <mxGeometry relative="1" as="geometry" />
        </mxCell>
        <mxCell id="fwE1eg_tT7GF1cN5ce5h-89" value="Pitch / Yaw" style="edgeLabel;html=1;align=center;verticalAlign=middle;resizable=0;points=[];" vertex="1" connectable="0" parent="fwE1eg_tT7GF1cN5ce5h-80">
          <mxGeometry x="-0.4712" y="-2" relative="1" as="geometry">
            <mxPoint as="offset" />
          </mxGeometry>
        </mxCell>
        <mxCell id="fwE1eg_tT7GF1cN5ce5h-81" style="edgeStyle=orthogonalEdgeStyle;rounded=0;orthogonalLoop=1;jettySize=auto;html=1;exitX=1;exitY=0.5;exitDx=0;exitDy=0;entryX=0.5;entryY=0;entryDx=0;entryDy=0;" edge="1" parent="fwE1eg_tT7GF1cN5ce5h-62" source="fwE1eg_tT7GF1cN5ce5h-57" target="fwE1eg_tT7GF1cN5ce5h-60">
          <mxGeometry relative="1" as="geometry" />
        </mxCell>
        <mxCell id="fwE1eg_tT7GF1cN5ce5h-88" value="Roll" style="edgeLabel;html=1;align=center;verticalAlign=middle;resizable=0;points=[];" vertex="1" connectable="0" parent="fwE1eg_tT7GF1cN5ce5h-81">
          <mxGeometry x="0.5243" y="-2" relative="1" as="geometry">
            <mxPoint as="offset" />
          </mxGeometry>
        </mxCell>
        <mxCell id="fwE1eg_tT7GF1cN5ce5h-82" style="edgeStyle=orthogonalEdgeStyle;rounded=0;orthogonalLoop=1;jettySize=auto;html=1;exitX=0;exitY=0.5;exitDx=0;exitDy=0;entryX=0.5;entryY=0;entryDx=0;entryDy=0;" edge="1" parent="fwE1eg_tT7GF1cN5ce5h-62" source="fwE1eg_tT7GF1cN5ce5h-57" target="fwE1eg_tT7GF1cN5ce5h-58">
          <mxGeometry relative="1" as="geometry" />
        </mxCell>
        <mxCell id="fwE1eg_tT7GF1cN5ce5h-90" value="Thrust" style="edgeLabel;html=1;align=center;verticalAlign=middle;resizable=0;points=[];" vertex="1" connectable="0" parent="fwE1eg_tT7GF1cN5ce5h-82">
          <mxGeometry x="0.4733" y="-1" relative="1" as="geometry">
            <mxPoint as="offset" />
          </mxGeometry>
        </mxCell>
        <mxCell id="fwE1eg_tT7GF1cN5ce5h-85" style="edgeStyle=orthogonalEdgeStyle;rounded=0;orthogonalLoop=1;jettySize=auto;html=1;exitX=1;exitY=0.25;exitDx=0;exitDy=0;entryX=0;entryY=0.5;entryDx=0;entryDy=0;" edge="1" parent="fwE1eg_tT7GF1cN5ce5h-62" source="fwE1eg_tT7GF1cN5ce5h-57" target="fwE1eg_tT7GF1cN5ce5h-83">
          <mxGeometry relative="1" as="geometry" />
        </mxCell>
        <mxCell id="fwE1eg_tT7GF1cN5ce5h-86" style="edgeStyle=orthogonalEdgeStyle;rounded=0;orthogonalLoop=1;jettySize=auto;html=1;exitX=1;exitY=0.25;exitDx=0;exitDy=0;entryX=0;entryY=0.5;entryDx=0;entryDy=0;" edge="1" parent="fwE1eg_tT7GF1cN5ce5h-62" source="fwE1eg_tT7GF1cN5ce5h-57" target="fwE1eg_tT7GF1cN5ce5h-84">
          <mxGeometry relative="1" as="geometry" />
        </mxCell>
        <mxCell id="fwE1eg_tT7GF1cN5ce5h-87" value="TBD" style="edgeLabel;html=1;align=center;verticalAlign=middle;resizable=0;points=[];" vertex="1" connectable="0" parent="fwE1eg_tT7GF1cN5ce5h-86">
          <mxGeometry x="-0.6477" relative="1" as="geometry">
            <mxPoint as="offset" />
          </mxGeometry>
        </mxCell>
        <mxCell id="fwE1eg_tT7GF1cN5ce5h-57" value="Controll" style="whiteSpace=wrap;html=1;aspect=fixed;" vertex="1" parent="fwE1eg_tT7GF1cN5ce5h-62">
          <mxGeometry x="290" y="40" width="80" height="80" as="geometry" />
        </mxCell>
        <mxCell id="fwE1eg_tT7GF1cN5ce5h-83" value="Air brakes" style="whiteSpace=wrap;html=1;dashed=1;dashPattern=12 12;" vertex="1" parent="fwE1eg_tT7GF1cN5ce5h-62">
          <mxGeometry x="520" y="30" width="120" height="20" as="geometry" />
        </mxCell>
        <mxCell id="fwE1eg_tT7GF1cN5ce5h-84" value="Fins" style="whiteSpace=wrap;html=1;dashed=1;dashPattern=12 12;" vertex="1" parent="fwE1eg_tT7GF1cN5ce5h-62">
          <mxGeometry x="520" y="60" width="120" height="20" as="geometry" />
        </mxCell>
        <mxCell id="fwE1eg_tT7GF1cN5ce5h-77" value="LoRa Transciever" style="whiteSpace=wrap;html=1;" vertex="1" parent="fwE1eg_tT7GF1cN5ce5h-3">
          <mxGeometry x="550" y="200" width="120" height="30" as="geometry" />
        </mxCell>
        <mxCell id="fwE1eg_tT7GF1cN5ce5h-106" style="edgeStyle=orthogonalEdgeStyle;rounded=0;orthogonalLoop=1;jettySize=auto;html=1;exitX=0.75;exitY=1;exitDx=0;exitDy=0;entryX=0.25;entryY=0;entryDx=0;entryDy=0;" edge="1" parent="fwE1eg_tT7GF1cN5ce5h-3" source="fwE1eg_tT7GF1cN5ce5h-92" target="fwE1eg_tT7GF1cN5ce5h-104">
          <mxGeometry relative="1" as="geometry" />
        </mxCell>
        <mxCell id="fwE1eg_tT7GF1cN5ce5h-112" style="edgeStyle=orthogonalEdgeStyle;rounded=0;orthogonalLoop=1;jettySize=auto;html=1;exitX=0.25;exitY=1;exitDx=0;exitDy=0;entryX=0.75;entryY=0;entryDx=0;entryDy=0;" edge="1" parent="fwE1eg_tT7GF1cN5ce5h-3" source="fwE1eg_tT7GF1cN5ce5h-92" target="fwE1eg_tT7GF1cN5ce5h-103">
          <mxGeometry relative="1" as="geometry" />
        </mxCell>
        <mxCell id="fwE1eg_tT7GF1cN5ce5h-92" value="BLACK BOX&lt;br&gt;Monitor" style="whiteSpace=wrap;html=1;" vertex="1" parent="fwE1eg_tT7GF1cN5ce5h-3">
          <mxGeometry x="430" y="305" width="190" height="30" as="geometry" />
        </mxCell>
        <mxCell id="fwE1eg_tT7GF1cN5ce5h-101" style="edgeStyle=orthogonalEdgeStyle;rounded=0;orthogonalLoop=1;jettySize=auto;html=1;exitX=1;exitY=0.75;exitDx=0;exitDy=0;entryX=0;entryY=0.5;entryDx=0;entryDy=0;" edge="1" parent="fwE1eg_tT7GF1cN5ce5h-3" source="fwE1eg_tT7GF1cN5ce5h-5" target="fwE1eg_tT7GF1cN5ce5h-92">
          <mxGeometry relative="1" as="geometry" />
        </mxCell>
        <mxCell id="fwE1eg_tT7GF1cN5ce5h-102" value="CANbus 1" style="edgeLabel;html=1;align=center;verticalAlign=middle;resizable=0;points=[];" vertex="1" connectable="0" parent="fwE1eg_tT7GF1cN5ce5h-101">
          <mxGeometry x="0.2113" y="2" relative="1" as="geometry">
            <mxPoint as="offset" />
          </mxGeometry>
        </mxCell>
        <mxCell id="fwE1eg_tT7GF1cN5ce5h-110" style="edgeStyle=orthogonalEdgeStyle;rounded=0;orthogonalLoop=1;jettySize=auto;html=1;exitX=1;exitY=0.5;exitDx=0;exitDy=0;entryX=0;entryY=0.5;entryDx=0;entryDy=0;dashed=1;" edge="1" parent="fwE1eg_tT7GF1cN5ce5h-3" source="fwE1eg_tT7GF1cN5ce5h-103" target="fwE1eg_tT7GF1cN5ce5h-104">
          <mxGeometry relative="1" as="geometry" />
        </mxCell>
        <mxCell id="fwE1eg_tT7GF1cN5ce5h-111" value="On landing" style="edgeLabel;html=1;align=center;verticalAlign=middle;resizable=0;points=[];" vertex="1" connectable="0" parent="fwE1eg_tT7GF1cN5ce5h-110">
          <mxGeometry x="-0.0867" relative="1" as="geometry">
            <mxPoint as="offset" />
          </mxGeometry>
        </mxCell>
        <mxCell id="fwE1eg_tT7GF1cN5ce5h-103" value="FLASH" style="whiteSpace=wrap;html=1;" vertex="1" parent="fwE1eg_tT7GF1cN5ce5h-3">
          <mxGeometry x="360" y="360" width="120" height="30" as="geometry" />
        </mxCell>
        <mxCell id="fwE1eg_tT7GF1cN5ce5h-104" value="SD Card" style="whiteSpace=wrap;html=1;" vertex="1" parent="fwE1eg_tT7GF1cN5ce5h-3">
          <mxGeometry x="550" y="360" width="120" height="30" as="geometry" />
        </mxCell>
      </root>
    </mxGraphModel>
  </diagram>
</mxfile>
